<svg width="154" height="30" viewBox="0 0 154 30" fill="none" xmlns="http://www.w3.org/2000/svg">
<path d="M49.7224 23.7132C50.219 23.7132 50.6371 23.5545 51.003 23.1841L52.7018 21.4643C53.0677 21.0939 53.2507 20.6442 53.2507 20.1415V17.7074C53.2507 17.1783 53.0677 16.7549 52.7018 16.3845L51.2121 14.8765L52.7018 13.3684C53.0677 12.998 53.2507 12.5482 53.2507 12.0455V9.66436C53.2507 9.13522 53.0677 8.7119 52.7018 8.3415L50.9769 6.59531C50.6371 6.25136 50.219 6.06616 49.7224 6.06616H40V23.7132H49.7224ZM48.3895 13.3949H43.1363V9.0823H49.0167C49.1735 9.0823 49.2781 9.13522 49.3826 9.24105L49.9576 9.82311C50.0621 9.92894 50.1144 10.0348 50.1144 10.1935V11.6487C50.1144 11.8074 50.0621 11.9132 49.9576 12.0191L48.7554 13.2361C48.6508 13.3419 48.5201 13.3949 48.3895 13.3949ZM49.0167 20.6971H43.1363V16.3581H48.3372C48.494 16.3581 48.5986 16.411 48.7031 16.5168L49.9576 17.7868C50.0621 17.8926 50.1144 17.9984 50.1144 18.1572V19.5859C50.1144 19.7446 50.0621 19.8504 49.9576 19.9563L49.3826 20.5383C49.2781 20.6442 49.1474 20.6971 49.0167 20.6971ZM66.2835 23.7132C66.7801 23.7132 67.2244 23.528 67.5903 23.1576L69.7334 20.9881C70.0993 20.6177 70.2822 20.1679 70.2822 19.6652V10.1141C70.2822 9.61145 70.0993 9.16167 69.7334 8.79127L67.5903 6.62177C67.2244 6.25136 66.7801 6.06616 66.2835 6.06616H59.4622C58.9656 6.06616 58.5213 6.25136 58.1554 6.62177L56.0123 8.79127C55.6464 9.16167 55.4635 9.61145 55.4635 10.1141V19.6652C55.4635 20.1679 55.6464 20.6177 56.0123 20.9881L58.1554 23.1576C58.5213 23.528 58.9656 23.7132 59.4622 23.7132H66.2835ZM65.604 20.6971H60.1417C59.9849 20.6971 59.8803 20.6442 59.7758 20.5383L58.7565 19.5065C58.652 19.4007 58.5997 19.2684 58.5997 19.1361V10.6433C58.5997 10.511 58.652 10.3787 58.7565 10.2729L59.7758 9.24105C59.8803 9.13522 59.9849 9.0823 60.1417 9.0823H65.604C65.7608 9.0823 65.8654 9.13522 65.9699 9.24105L66.9892 10.2729C67.0937 10.3787 67.146 10.511 67.146 10.6433V19.1361C67.146 19.2684 67.0937 19.4007 66.9892 19.5065L65.9699 20.5383C65.8654 20.6442 65.7608 20.6971 65.604 20.6971ZM83.3151 23.7132C83.8117 23.7132 84.256 23.528 84.6219 23.1576L86.765 20.9881C87.1309 20.6177 87.3138 20.1679 87.3138 19.6652V10.1141C87.3138 9.61145 87.1309 9.16167 86.765 8.79127L84.6219 6.62177C84.256 6.25136 83.8117 6.06616 83.3151 6.06616H76.4938C75.9972 6.06616 75.5529 6.25136 75.187 6.62177L73.0439 8.79127C72.678 9.16167 72.495 9.61145 72.495 10.1141V19.6652C72.495 20.1679 72.678 20.6177 73.0439 20.9881L75.187 23.1576C75.5529 23.528 75.9972 23.7132 76.4938 23.7132H83.3151ZM82.6356 20.6971H77.1733C77.0165 20.6971 76.9119 20.6442 76.8074 20.5383L75.7881 19.5065C75.6836 19.4007 75.6313 19.2684 75.6313 19.1361V10.6433C75.6313 10.511 75.6836 10.3787 75.7881 10.2729L76.8074 9.24105C76.9119 9.13522 77.0165 9.0823 77.1733 9.0823H82.6356C82.7924 9.0823 82.8969 9.13522 83.0015 9.24105L84.0208 10.2729C84.1253 10.3787 84.1776 10.511 84.1776 10.6433V19.1361C84.1776 19.2684 84.1253 19.4007 84.0208 19.5065L83.0015 20.5383C82.8969 20.6442 82.7924 20.6971 82.6356 20.6971ZM93.3163 23.7132V9.69082L97.5763 23.7132H100.817L105.077 9.69082V23.7132H108.135V6.06616H103.326L99.1967 19.7446L95.0673 6.06616H90.2584V23.7132H93.3163ZM117.796 23.7132V9.0823H122.841V6.06616H109.616V9.0823H114.66V23.7132H117.796ZM125.262 23.7132L126.909 19.2948H133.861L135.508 23.7132H138.696L132.293 6.06616H128.582L122.126 23.7132H125.262ZM132.789 16.4639H127.981L130.385 9.47916L132.789 16.4639ZM143.313 23.7132V16.7549H149.899C150.396 16.7549 150.814 16.5697 151.154 16.2258L152.879 14.4796C153.245 14.1092 153.428 13.6859 153.428 13.1567V9.66436C153.428 9.13522 153.245 8.7119 152.879 8.3415L151.154 6.59531C150.814 6.25136 150.396 6.06616 149.899 6.06616H140.177V23.7132H143.313ZM149.194 13.7388H143.313V9.0823H149.194C149.351 9.0823 149.455 9.13522 149.56 9.24105L150.135 9.82311C150.239 9.92894 150.292 10.0348 150.292 10.1935V12.6276C150.292 12.7863 150.239 12.8922 150.135 12.998L149.56 13.5801C149.455 13.6859 149.351 13.7388 149.194 13.7388Z" fill="white"/>
<mask id="mask0_1_470" style="mask-type:alpha" maskUnits="userSpaceOnUse" x="0" y="0" width="9" height="9">
<path d="M8.82353 0H0V8.82353H8.82353V0Z" fill="white"/>
</mask>
<g mask="url(#mask0_1_470)">
<path d="M8.82353 0H0V30H8.82353V0Z" fill="url(#paint0_linear_1_470)"/>
</g>
<mask id="mask1_1_470" style="mask-type:alpha" maskUnits="userSpaceOnUse" x="10" y="0" width="10" height="9">
<path d="M19.4117 0H10.5882V8.82353H19.4117V0Z" fill="white"/>
</mask>
<g mask="url(#mask1_1_470)">
<path d="M19.4117 0H10.5882V30H19.4117V0Z" fill="url(#paint1_linear_1_470)"/>
</g>
<mask id="mask2_1_470" style="mask-type:alpha" maskUnits="userSpaceOnUse" x="21" y="0" width="9" height="9">
<path d="M30 0H21.1765V8.82353H30V0Z" fill="white"/>
</mask>
<g mask="url(#mask2_1_470)">
<path d="M30 0H21.1765V30H30V0Z" fill="url(#paint2_linear_1_470)"/>
</g>
<mask id="mask3_1_470" style="mask-type:alpha" maskUnits="userSpaceOnUse" x="0" y="10" width="9" height="10">
<path d="M8.82351 10.5881H-2.28882e-05V19.4117H8.82351V10.5881Z" fill="white"/>
</mask>
<g mask="url(#mask3_1_470)">
<path d="M8.82349 0H-4.57764e-05V30H8.82349V0Z" fill="url(#paint3_linear_1_470)"/>
</g>
<mask id="mask4_1_470" style="mask-type:alpha" maskUnits="userSpaceOnUse" x="10" y="10" width="10" height="10">
<path d="M19.4117 10.5881H10.5882V19.4117H19.4117V10.5881Z" fill="white"/>
</mask>
<g mask="url(#mask4_1_470)">
<path d="M19.4118 0H10.5882V30H19.4118V0Z" fill="url(#paint4_linear_1_470)"/>
</g>
<mask id="mask5_1_470" style="mask-type:alpha" maskUnits="userSpaceOnUse" x="21" y="10" width="9" height="10">
<path d="M30 10.5881H21.1765V19.4117H30V10.5881Z" fill="white"/>
</mask>
<g mask="url(#mask5_1_470)">
<path d="M30 0H21.1764V30H30V0Z" fill="url(#paint5_linear_1_470)"/>
</g>
<mask id="mask6_1_470" style="mask-type:alpha" maskUnits="userSpaceOnUse" x="0" y="21" width="9" height="9">
<path d="M8.82351 21.1765H-2.28882e-05V30H8.82351V21.1765Z" fill="white"/>
</mask>
<g mask="url(#mask6_1_470)">
<path d="M8.82349 0H-4.57764e-05V30H8.82349V0Z" fill="url(#paint6_linear_1_470)"/>
</g>
<mask id="mask7_1_470" style="mask-type:alpha" maskUnits="userSpaceOnUse" x="10" y="21" width="10" height="9">
<path d="M19.4117 21.1765H10.5882V30H19.4117V21.1765Z" fill="white"/>
</mask>
<g mask="url(#mask7_1_470)">
<path d="M19.4118 0H10.5882V30H19.4118V0Z" fill="url(#paint7_linear_1_470)"/>
</g>
<mask id="mask8_1_470" style="mask-type:alpha" maskUnits="userSpaceOnUse" x="21" y="21" width="9" height="9">
<path d="M30 21.1765H21.1765V30H30V21.1765Z" fill="white"/>
</mask>
<g mask="url(#mask8_1_470)">
<path d="M30 0H21.1764V30H30V0Z" fill="url(#paint8_linear_1_470)"/>
</g>
<defs>
<linearGradient id="paint0_linear_1_470" x1="4.41177" y1="0" x2="4.41177" y2="30" gradientUnits="userSpaceOnUse">
<stop stop-color="#9752B3"/>
<stop offset="1" stop-color="#F59EAD"/>
</linearGradient>
<linearGradient id="paint1_linear_1_470" x1="15" y1="0" x2="15" y2="30" gradientUnits="userSpaceOnUse">
<stop stop-color="#9752B3"/>
<stop offset="1" stop-color="#F59EAD"/>
</linearGradient>
<linearGradient id="paint2_linear_1_470" x1="25.5882" y1="0" x2="25.5882" y2="30" gradientUnits="userSpaceOnUse">
<stop stop-color="#9752B3"/>
<stop offset="1" stop-color="#F59EAD"/>
</linearGradient>
<linearGradient id="paint3_linear_1_470" x1="4.41172" y1="0" x2="4.41172" y2="30" gradientUnits="userSpaceOnUse">
<stop stop-color="#9752B3"/>
<stop offset="1" stop-color="#F59EAD"/>
</linearGradient>
<linearGradient id="paint4_linear_1_470" x1="15" y1="0" x2="15" y2="30" gradientUnits="userSpaceOnUse">
<stop stop-color="#9752B3"/>
<stop offset="1" stop-color="#F59EAD"/>
</linearGradient>
<linearGradient id="paint5_linear_1_470" x1="25.5882" y1="0" x2="25.5882" y2="30" gradientUnits="userSpaceOnUse">
<stop stop-color="#9752B3"/>
<stop offset="1" stop-color="#F59EAD"/>
</linearGradient>
<linearGradient id="paint6_linear_1_470" x1="4.41172" y1="0" x2="4.41172" y2="30" gradientUnits="userSpaceOnUse">
<stop stop-color="#9752B3"/>
<stop offset="1" stop-color="#F59EAD"/>
</linearGradient>
<linearGradient id="paint7_linear_1_470" x1="15" y1="0" x2="15" y2="30" gradientUnits="userSpaceOnUse">
<stop stop-color="#9752B3"/>
<stop offset="1" stop-color="#F59EAD"/>
</linearGradient>
<linearGradient id="paint8_linear_1_470" x1="25.5882" y1="0" x2="25.5882" y2="30" gradientUnits="userSpaceOnUse">
<stop stop-color="#9752B3"/>
<stop offset="1" stop-color="#F59EAD"/>
</linearGradient>
</defs>
</svg>
